<mxfile host="app.diagrams.net" agent="Mozilla/5.0 (Windows NT 10.0; Win64; x64) AppleWebKit/537.36 (KHTML, like Gecko) Chrome/135.0.0.0 Safari/537.36 OPR/120.0.0.0" version="28.1.0">
  <diagram name="PÃ¡gina-1" id="pB4onBRnwppH6UoJo1hm">
    <mxGraphModel dx="1979" dy="1137" grid="1" gridSize="10" guides="1" tooltips="1" connect="1" arrows="1" fold="1" page="1" pageScale="1" pageWidth="827" pageHeight="1169" math="0" shadow="0">
      <root>
        <mxCell id="0" />
        <mxCell id="1" parent="0" />
        <mxCell id="Z7L97PA5ZH27VDLd17E8-8" style="edgeStyle=orthogonalEdgeStyle;rounded=0;orthogonalLoop=1;jettySize=auto;html=1;entryX=0;entryY=0.5;entryDx=0;entryDy=0;" edge="1" parent="1" source="Z7L97PA5ZH27VDLd17E8-1" target="Z7L97PA5ZH27VDLd17E8-7">
          <mxGeometry relative="1" as="geometry">
            <Array as="points">
              <mxPoint x="270" y="120" />
              <mxPoint x="270" y="80" />
            </Array>
          </mxGeometry>
        </mxCell>
        <mxCell id="Z7L97PA5ZH27VDLd17E8-11" style="edgeStyle=orthogonalEdgeStyle;rounded=0;orthogonalLoop=1;jettySize=auto;html=1;entryX=0;entryY=0.5;entryDx=0;entryDy=0;" edge="1" parent="1" source="Z7L97PA5ZH27VDLd17E8-1" target="Z7L97PA5ZH27VDLd17E8-10">
          <mxGeometry relative="1" as="geometry">
            <Array as="points">
              <mxPoint x="280" y="120" />
              <mxPoint x="280" y="170" />
            </Array>
          </mxGeometry>
        </mxCell>
        <mxCell id="Z7L97PA5ZH27VDLd17E8-14" style="edgeStyle=orthogonalEdgeStyle;rounded=0;orthogonalLoop=1;jettySize=auto;html=1;entryX=0;entryY=0.5;entryDx=0;entryDy=0;" edge="1" parent="1" source="Z7L97PA5ZH27VDLd17E8-1" target="Z7L97PA5ZH27VDLd17E8-13">
          <mxGeometry relative="1" as="geometry">
            <Array as="points">
              <mxPoint x="280" y="120" />
              <mxPoint x="280" y="260" />
            </Array>
          </mxGeometry>
        </mxCell>
        <mxCell id="Z7L97PA5ZH27VDLd17E8-1" value="Cordinadora Academica" style="shape=umlActor;verticalLabelPosition=bottom;verticalAlign=top;html=1;outlineConnect=0;" vertex="1" parent="1">
          <mxGeometry x="130" y="90" width="30" height="60" as="geometry" />
        </mxCell>
        <mxCell id="Z7L97PA5ZH27VDLd17E8-19" style="edgeStyle=orthogonalEdgeStyle;rounded=0;orthogonalLoop=1;jettySize=auto;html=1;entryX=0;entryY=0.5;entryDx=0;entryDy=0;" edge="1" parent="1" source="Z7L97PA5ZH27VDLd17E8-2" target="Z7L97PA5ZH27VDLd17E8-16">
          <mxGeometry relative="1" as="geometry" />
        </mxCell>
        <mxCell id="Z7L97PA5ZH27VDLd17E8-20" style="edgeStyle=orthogonalEdgeStyle;rounded=0;orthogonalLoop=1;jettySize=auto;html=1;entryX=0;entryY=0.5;entryDx=0;entryDy=0;fillColor=#0050ef;strokeColor=#001DBC;" edge="1" parent="1" source="Z7L97PA5ZH27VDLd17E8-2" target="Z7L97PA5ZH27VDLd17E8-17">
          <mxGeometry relative="1" as="geometry">
            <Array as="points">
              <mxPoint x="260" y="440" />
              <mxPoint x="260" y="450" />
            </Array>
          </mxGeometry>
        </mxCell>
        <mxCell id="Z7L97PA5ZH27VDLd17E8-21" style="edgeStyle=orthogonalEdgeStyle;rounded=0;orthogonalLoop=1;jettySize=auto;html=1;entryX=0;entryY=0.5;entryDx=0;entryDy=0;" edge="1" parent="1" source="Z7L97PA5ZH27VDLd17E8-2" target="Z7L97PA5ZH27VDLd17E8-18">
          <mxGeometry relative="1" as="geometry" />
        </mxCell>
        <mxCell id="Z7L97PA5ZH27VDLd17E8-2" value="Docente&lt;div&gt;&lt;br&gt;&lt;/div&gt;" style="shape=umlActor;verticalLabelPosition=bottom;verticalAlign=top;html=1;outlineConnect=0;" vertex="1" parent="1">
          <mxGeometry x="120" y="410" width="30" height="60" as="geometry" />
        </mxCell>
        <mxCell id="Z7L97PA5ZH27VDLd17E8-23" style="edgeStyle=orthogonalEdgeStyle;rounded=0;orthogonalLoop=1;jettySize=auto;html=1;entryX=0;entryY=0.5;entryDx=0;entryDy=0;" edge="1" parent="1" source="Z7L97PA5ZH27VDLd17E8-3" target="Z7L97PA5ZH27VDLd17E8-22">
          <mxGeometry relative="1" as="geometry" />
        </mxCell>
        <mxCell id="Z7L97PA5ZH27VDLd17E8-3" value="Estudiante" style="shape=umlActor;verticalLabelPosition=bottom;verticalAlign=top;html=1;outlineConnect=0;" vertex="1" parent="1">
          <mxGeometry x="130" y="585" width="30" height="60" as="geometry" />
        </mxCell>
        <mxCell id="Z7L97PA5ZH27VDLd17E8-6" value="Organizador de Horarios" style="swimlane;whiteSpace=wrap;html=1;" vertex="1" parent="1">
          <mxGeometry x="240" y="10" width="360" height="920" as="geometry" />
        </mxCell>
        <mxCell id="Z7L97PA5ZH27VDLd17E8-7" value="Crear Horario Academico" style="ellipse;whiteSpace=wrap;html=1;" vertex="1" parent="Z7L97PA5ZH27VDLd17E8-6">
          <mxGeometry x="120" y="30" width="120" height="80" as="geometry" />
        </mxCell>
        <mxCell id="Z7L97PA5ZH27VDLd17E8-10" value="Modificar Horario" style="ellipse;whiteSpace=wrap;html=1;" vertex="1" parent="Z7L97PA5ZH27VDLd17E8-6">
          <mxGeometry x="120" y="120" width="120" height="80" as="geometry" />
        </mxCell>
        <mxCell id="Z7L97PA5ZH27VDLd17E8-13" value="Validar Conflictos de Horarios" style="ellipse;whiteSpace=wrap;html=1;" vertex="1" parent="Z7L97PA5ZH27VDLd17E8-6">
          <mxGeometry x="120" y="210" width="120" height="80" as="geometry" />
        </mxCell>
        <mxCell id="Z7L97PA5ZH27VDLd17E8-16" value="Registrar disponibilidad horaria" style="ellipse;whiteSpace=wrap;html=1;" vertex="1" parent="Z7L97PA5ZH27VDLd17E8-6">
          <mxGeometry x="120" y="310" width="120" height="80" as="geometry" />
        </mxCell>
        <mxCell id="Z7L97PA5ZH27VDLd17E8-17" value="Actualizar restricciones/preferencias a la hora de elegir sala" style="ellipse;whiteSpace=wrap;html=1;" vertex="1" parent="Z7L97PA5ZH27VDLd17E8-6">
          <mxGeometry x="95" y="400" width="170" height="80" as="geometry" />
        </mxCell>
        <mxCell id="Z7L97PA5ZH27VDLd17E8-18" value="Consultar horario personal" style="ellipse;whiteSpace=wrap;html=1;" vertex="1" parent="Z7L97PA5ZH27VDLd17E8-6">
          <mxGeometry x="120" y="495" width="120" height="80" as="geometry" />
        </mxCell>
        <mxCell id="Z7L97PA5ZH27VDLd17E8-22" value="Consultar horarios" style="ellipse;whiteSpace=wrap;html=1;" vertex="1" parent="Z7L97PA5ZH27VDLd17E8-6">
          <mxGeometry x="114" y="600" width="120" height="80" as="geometry" />
        </mxCell>
        <mxCell id="Z7L97PA5ZH27VDLd17E8-24" value="Proveer informacion academica" style="ellipse;whiteSpace=wrap;html=1;" vertex="1" parent="Z7L97PA5ZH27VDLd17E8-6">
          <mxGeometry x="114" y="710" width="120" height="80" as="geometry" />
        </mxCell>
        <mxCell id="Z7L97PA5ZH27VDLd17E8-27" value="Actualizar informacion de disponibilidad" style="ellipse;whiteSpace=wrap;html=1;" vertex="1" parent="Z7L97PA5ZH27VDLd17E8-6">
          <mxGeometry x="114" y="820" width="120" height="80" as="geometry" />
        </mxCell>
        <mxCell id="Z7L97PA5ZH27VDLd17E8-28" style="edgeStyle=orthogonalEdgeStyle;rounded=0;orthogonalLoop=1;jettySize=auto;html=1;entryX=0;entryY=0.5;entryDx=0;entryDy=0;" edge="1" parent="1" source="Z7L97PA5ZH27VDLd17E8-25" target="Z7L97PA5ZH27VDLd17E8-27">
          <mxGeometry relative="1" as="geometry" />
        </mxCell>
        <mxCell id="Z7L97PA5ZH27VDLd17E8-25" value="Sistema de base de datos" style="shape=umlActor;verticalLabelPosition=bottom;verticalAlign=top;html=1;outlineConnect=0;" vertex="1" parent="1">
          <mxGeometry x="130" y="750" width="30" height="60" as="geometry" />
        </mxCell>
        <mxCell id="Z7L97PA5ZH27VDLd17E8-26" style="edgeStyle=orthogonalEdgeStyle;rounded=0;orthogonalLoop=1;jettySize=auto;html=1;entryX=0.025;entryY=0.425;entryDx=0;entryDy=0;entryPerimeter=0;" edge="1" parent="1" source="Z7L97PA5ZH27VDLd17E8-25" target="Z7L97PA5ZH27VDLd17E8-24">
          <mxGeometry relative="1" as="geometry" />
        </mxCell>
      </root>
    </mxGraphModel>
  </diagram>
</mxfile>
